<svg width="109" height="32" viewBox="0 0 109 32" fill="none" xmlns="http://www.w3.org/2000/svg">
<path d="M16.9838 7.48793V23.9999H10.9998V21.5679H10.6798C9.42115 23.4453 7.87449 24.3839 6.03982 24.3839C4.33315 24.3839 2.93582 23.7653 1.84782 22.5279C0.75982 21.2906 0.21582 19.7119 0.21582 17.7919V7.48793H6.19982V16.6719C6.19982 17.4826 6.40249 18.1439 6.80782 18.6559C7.23449 19.1466 7.79982 19.3919 8.50382 19.3919C9.20782 19.3919 9.79449 19.1359 10.2638 18.6239C10.7545 18.0906 10.9998 17.4079 10.9998 16.5759V7.48793H16.9838Z" fill="white"/>
<path d="M30.8861 7.07193C33.0834 7.07193 34.8541 7.86126 36.1981 9.43993C37.5421 10.9973 38.2141 13.0986 38.2141 15.7439C38.2141 18.3466 37.5421 20.4479 36.1981 22.0479C34.8541 23.6266 33.0941 24.4159 30.9181 24.4159C28.8487 24.4159 27.2487 23.6373 26.1181 22.0799H25.7981V31.3599H19.8141V7.48793H25.7981V9.40793H26.1181C27.2487 7.8506 28.8381 7.07193 30.8861 7.07193ZM31.2381 13.1519C30.6194 12.4479 29.8301 12.0959 28.8701 12.0959C27.9101 12.0959 27.1101 12.4479 26.4701 13.1519C25.8514 13.8346 25.5421 14.6986 25.5421 15.7439C25.5421 16.7893 25.8514 17.6639 26.4701 18.3679C27.1101 19.0506 27.9101 19.3919 28.8701 19.3919C29.8301 19.3919 30.6194 19.0506 31.2381 18.3679C31.8781 17.6639 32.1981 16.7893 32.1981 15.7439C32.1981 14.6986 31.8781 13.8346 31.2381 13.1519Z" fill="white"/>
<path d="M49.0761 24.4159C46.3454 24.4159 44.1267 23.6266 42.4201 22.0479C40.7347 20.4479 39.8921 18.3466 39.8921 15.7439C39.8921 13.0986 40.7241 10.9973 42.3881 9.43993C44.0734 7.86126 46.3027 7.07193 49.0761 7.07193C51.4654 7.07193 53.4494 7.6586 55.0281 8.83193C56.6067 10.0053 57.5241 11.6159 57.7801 13.6639L52.2441 14.3679C52.0947 13.6426 51.7214 13.0453 51.1241 12.5759C50.5481 12.1066 49.8974 11.8719 49.1721 11.8719C48.2121 11.8719 47.4227 12.2346 46.8041 12.9599C46.1854 13.6853 45.8761 14.6133 45.8761 15.7439C45.8761 16.8746 46.1854 17.8026 46.8041 18.5279C47.4227 19.2533 48.2014 19.6159 49.1401 19.6159C49.8867 19.6159 50.5481 19.3919 51.1241 18.9439C51.7001 18.4746 52.0734 17.8773 52.2441 17.1519L57.7801 17.8239C57.5027 19.8719 56.5747 21.4826 54.9961 22.6559C53.4174 23.8293 51.4441 24.4159 49.0761 24.4159Z" fill="white"/>
<path d="M59.9711 23.9999V0.12793H65.9551V9.85593H66.2751C67.5337 7.99993 69.0804 7.07193 70.9151 7.07193C72.6217 7.07193 74.0191 7.70126 75.1071 8.95993C76.1951 10.1973 76.7391 11.7759 76.7391 13.6959V23.9999H70.7231V14.7839C70.7231 13.9946 70.5097 13.3546 70.0831 12.8639C69.6777 12.3519 69.1231 12.0959 68.4191 12.0959C67.7151 12.0959 67.1284 12.3626 66.6591 12.8959C66.1897 13.4079 65.9551 14.0799 65.9551 14.9119V23.9999H59.9711Z" fill="white"/>
<path d="M84.0486 24.3839C82.3846 24.3839 81.0512 23.9679 80.0486 23.1359C79.0459 22.2826 78.5446 21.1199 78.5446 19.6479C78.5446 18.0693 79.1952 16.8319 80.4966 15.9359C81.7979 15.0186 83.8139 14.3786 86.5446 14.0159L89.4246 13.6639V12.9279C89.4246 12.3093 89.2326 11.8186 88.8486 11.4559C88.4646 11.0719 87.9312 10.8799 87.2486 10.8799C86.5872 10.8799 86.0432 11.0826 85.6166 11.4879C85.2112 11.8933 85.0086 12.4373 85.0086 13.1199H79.2166C79.2166 11.2853 79.9526 9.82393 81.4246 8.73593C82.8966 7.6266 84.8592 7.07193 87.3126 7.07193C89.7659 7.07193 91.7286 7.6266 93.2006 8.73593C94.6939 9.82393 95.4406 11.2959 95.4406 13.1519V23.9999H89.4246V22.0479H89.1046C88.6566 22.7946 87.9739 23.3706 87.0566 23.7759C86.1606 24.1813 85.1579 24.3839 84.0486 24.3839ZM86.3846 20.7679C87.2806 20.7679 88.0059 20.4906 88.5606 19.9359C89.1366 19.3813 89.4246 18.6773 89.4246 17.8239V16.8319L86.7686 17.2159C85.1259 17.4293 84.3046 18.0479 84.3046 19.0719C84.3046 19.5839 84.4859 19.9999 84.8486 20.3199C85.2326 20.6186 85.7446 20.7679 86.3846 20.7679Z" fill="white"/>
<path d="M105.136 24.4159C103.344 24.4159 101.904 23.8399 100.816 22.6879C99.7281 21.5146 99.1841 19.9679 99.1841 18.0479V11.7439H97.0721V7.48793H99.4081L100.496 2.33593H105.2V7.48793H108.656V11.7439H105.2V17.7599C105.2 18.3999 105.371 18.9226 105.712 19.3279C106.075 19.7119 106.555 19.9039 107.152 19.9039C107.621 19.9039 108.155 19.8293 108.752 19.6799V23.8399C107.685 24.2239 106.48 24.4159 105.136 24.4159Z" fill="white"/>
</svg>
