<svg width="57" height="56" viewBox="0 0 57 56" fill="none" xmlns="http://www.w3.org/2000/svg">
<rect x="0.950195" y="0.000488281" width="56" height="56" rx="14" fill="url(#paint0_linear_283_2406)"/>
<g clip-path="url(#clip0_283_2406)">
<path d="M28.9541 6.0005C16.5626 6.00049 6.9541 15.081 6.95409 27.3405C6.95409 33.7535 9.58309 39.2975 13.8621 43.1255C14.2196 43.4445 14.4396 43.8955 14.4506 44.3795L14.5716 48.2955C14.6101 49.544 15.8971 50.358 17.0411 49.852L21.4081 47.927C21.7766 47.762 22.1946 47.7345 22.5851 47.839C24.5926 48.389 26.7266 48.686 28.9541 48.686C41.3456 48.686 50.9541 39.6055 50.9541 27.346C50.9541 15.0865 41.3456 6.0005 28.9541 6.0005Z" fill="url(#paint1_radial_283_2406)"/>
<path d="M15.7432 33.5828L22.2057 23.3308C23.2342 21.6973 25.4342 21.2958 26.9797 22.4508L32.1222 26.3063C32.5952 26.6583 33.2442 26.6583 33.7117 26.3008L40.6527 21.0318C41.5767 20.3278 42.7867 21.4388 42.1707 22.4233L35.7027 32.6698C34.6742 34.3033 32.4742 34.7048 30.9287 33.5498L25.7862 29.6943C25.3132 29.3423 24.6642 29.3423 24.1967 29.6998L17.2557 34.9688C16.3317 35.6728 15.1217 34.5673 15.7432 33.5828Z" fill="url(#paint2_linear_283_2406)"/>
</g>
<defs>
<linearGradient id="paint0_linear_283_2406" x1="28.9502" y1="0.000488281" x2="28.9502" y2="56.0005" gradientUnits="userSpaceOnUse">
<stop stop-color="white"/>
<stop offset="0.148217" stop-color="#FCFCFC"/>
<stop offset="0.448232" stop-color="#F4F4F4"/>
<stop offset="1" stop-color="#EEEEEE"/>
</linearGradient>
<radialGradient id="paint1_radial_283_2406" cx="0" cy="0" r="1" gradientUnits="userSpaceOnUse" gradientTransform="translate(15.4241 49.7609) scale(47.9424)">
<stop stop-color="#0099FF"/>
<stop offset="0.6098" stop-color="#A033FF"/>
<stop offset="0.9348" stop-color="#FF5280"/>
<stop offset="1" stop-color="#FF7061"/>
</radialGradient>
<linearGradient id="paint2_linear_283_2406" x1="28.9556" y1="22.9672" x2="32.9809" y2="36.5739" gradientUnits="userSpaceOnUse">
<stop stop-color="#FBFDFE"/>
<stop offset="0.34686" stop-color="white"/>
<stop offset="1" stop-color="#EEF9FF"/>
</linearGradient>
<clipPath id="clip0_283_2406">
<rect width="44" height="44" fill="white" transform="translate(6.9541 6.00049)"/>
</clipPath>
</defs>
</svg>
