<svg width="20" height="20" viewBox="0 0 20 20" fill="none" xmlns="http://www.w3.org/2000/svg">
<path d="M9.64207 1.08447C9.75595 0.739416 10.244 0.739414 10.3579 1.08446L11.6999 5.15021C11.772 5.36888 12.0217 5.47229 12.2273 5.3687L16.0511 3.44267C16.3757 3.27921 16.7208 3.62434 16.5573 3.94886L14.6313 7.77265C14.5277 7.97831 14.6311 8.22797 14.8498 8.30015L18.9155 9.64207C19.2606 9.75595 19.2606 10.244 18.9155 10.3579L14.8498 11.6999C14.6311 11.772 14.5277 12.0217 14.6313 12.2273L16.5573 16.0511C16.7208 16.3757 16.3757 16.7208 16.0511 16.5573L12.2273 14.6313C12.0217 14.5277 11.772 14.6311 11.6999 14.8498L10.3579 18.9155C10.244 19.2606 9.75595 19.2606 9.64207 18.9155L8.30015 14.8498C8.22797 14.6311 7.97831 14.5277 7.77266 14.6313L3.94886 16.5573C3.62435 16.7208 3.27921 16.3757 3.44267 16.0511L5.3687 12.2273C5.47229 12.0217 5.36888 11.772 5.15021 11.6999L1.08447 10.3579C0.739416 10.244 0.739414 9.75595 1.08446 9.64207L5.15021 8.30015C5.36888 8.22797 5.47229 7.97831 5.3687 7.77266L3.44267 3.94886C3.27921 3.62435 3.62434 3.27921 3.94886 3.44267L7.77265 5.3687C7.97831 5.47229 8.22797 5.36888 8.30015 5.15021L9.64207 1.08447Z" fill="#8E96A0"/>
</svg>
