<svg width="57" height="56" viewBox="0 0 57 56" fill="none" xmlns="http://www.w3.org/2000/svg">
<rect x="0.299805" y="0.000244141" width="56" height="56" rx="14" fill="#008AFC"/>
<path fill-rule="evenodd" clip-rule="evenodd" d="M46.8191 18.6254C47.0861 17.6886 46.8191 17.0003 45.5487 17.0003L41.3477 17.0003C40.2796 17.0003 39.7871 17.5949 39.5201 18.2506C39.5201 18.2506 37.3837 23.7307 34.3573 27.2903C33.3782 28.3207 32.9331 28.6486 32.399 28.6486C32.132 28.6486 31.7454 28.3207 31.7454 27.384L31.7454 18.6254C31.7454 17.5012 31.4355 17.0003 30.5452 17.0003L23.9437 17.0003C23.2762 17.0003 22.8747 17.522 22.8747 18.0165C22.8747 19.0821 24.3879 19.3279 24.5438 22.3255L24.5438 28.836C24.5438 30.2634 24.2989 30.5222 23.7648 30.5222C22.3407 30.5222 18.8764 25.0177 16.8218 18.719C16.4191 17.4948 16.0153 17.0002 14.9416 17.0002L10.7406 17.0002C9.54036 17.0002 9.30029 17.5949 9.30029 18.2506C9.30029 19.4216 10.7245 25.2295 15.9317 32.9109C19.4031 38.1566 24.2942 41.0003 28.7448 41.0003C31.4152 41.0003 31.7455 40.3687 31.7455 39.2808L31.7455 35.316C31.7455 34.0529 31.9985 33.8008 32.8441 33.8008C33.4672 33.8008 34.5353 34.1286 37.0277 36.6579C39.8761 39.6555 40.3457 41.0003 41.9479 41.0003L46.1489 41.0003C47.3491 41.0003 47.9493 40.3687 47.6031 39.1223C47.2242 37.8801 45.8643 36.0778 44.0597 33.9413C43.0805 32.7235 41.6119 31.4121 41.1668 30.7563C40.5437 29.9133 40.7217 29.5385 41.1668 28.7892C41.1668 28.7892 46.2851 21.2014 46.8191 18.6254Z" fill="white"/>
</svg>
